<?xml version="1.0" encoding="UTF-8" standalone="no"?>
<!DOCTYPE svg PUBLIC "-//W3C//DTD SVG 1.1//EN" "http://www.w3.org/Graphics/SVG/1.1/DTD/svg11.dtd">
<svg width="100%" height="100%" viewBox="0 0 512 512" version="1.1" xmlns="http://www.w3.org/2000/svg" xmlns:xlink="http://www.w3.org/1999/xlink" xml:space="preserve" xmlns:serif="http://www.serif.com/" style="fill-rule:evenodd;clip-rule:evenodd;stroke-linejoin:round;stroke-miterlimit:2;">
    <style>
        path {
            fill: #000;
        }
        @media (prefers-color-scheme: dark) {
            path {
                fill: #fff;
            }
        }
    </style>
    <g transform="matrix(1.13989,0,0,1.13989,-361.265,-22.5331)">
        <g transform="matrix(288,0,0,288,350.858,261.333)">
            <path d="M0.29,-0.504L0.371,-0.249L0.207,-0.249L0.29,-0.504ZM0.009,0L0.224,0L0.224,-0.054L0.148,-0.066L0.188,-0.191L0.389,-0.191L0.43,-0.062L0.353,-0.052L0.353,0L0.662,0L0.662,-0.052L0.601,-0.059L0.396,-0.658L0.293,-0.658L0.09,-0.066L0.009,-0.054L0.009,0Z" style="fill-rule:nonzero;"/>
        </g>
    </g>
    <g transform="matrix(1,0,0,1,56.0626,32.3568)">
        <g transform="matrix(328.288,0,0,328.288,203.854,412.062)">
            <path d="M0.38,0.019C0.468,0.019 0.536,0 0.606,-0.04L0.606,-0.082C0.606,-0.144 0.607,-0.203 0.608,-0.263L0.66,-0.27L0.66,-0.324L0.355,-0.324L0.355,-0.27L0.445,-0.258C0.446,-0.2 0.447,-0.144 0.447,-0.085L0.447,-0.042C0.435,-0.039 0.423,-0.038 0.409,-0.038C0.299,-0.038 0.211,-0.131 0.211,-0.33C0.211,-0.529 0.303,-0.619 0.411,-0.619C0.435,-0.619 0.459,-0.614 0.483,-0.604L0.512,-0.474L0.589,-0.474L0.585,-0.63C0.527,-0.661 0.457,-0.676 0.392,-0.676C0.165,-0.676 0.034,-0.54 0.034,-0.33C0.034,-0.112 0.174,0.019 0.38,0.019Z" style="fill-rule:nonzero;"/>
        </g>
    </g>
</svg>
